# xmcd CD database file
#
# Track frame offsets:
#	150
#	27218
#	44324
#	65359
#	92162
#	109365
#	131206
#	145639
#	161002
#
# Disc length: 2362 seconds
#
# Revision: 0
# Processed by: cddbd v1.5.1PL2 Copyright (c) Steve Scherf et al.
# Submitted via: CDex 1.51
#
DISCID=7b093809
DTITLE=Orchestra Harlow - Rumbambola
DYEAR=1979
DGENRE=Salsa
TTITLE0=Con la mayor elegancia
TTITLE1=Ponte a bailar mi son conmigo
TTITLE2=La flor y la espada
TTITLE3=Para mi obatalá
TTITLE4=Viva Caracas
TTITLE5=La vida tiene su cosa
TTITLE6=Veinte años
TTITLE7=La reina del café
TTITLE8=Rumbambola
EXTD=YEAR: 1979
EXTT0=
EXTT1=
EXTT2=
EXTT3=
EXTT4=
EXTT5=
EXTT6=
EXTT7=
EXTT8=
PLAYORDER=
